
[IMG]http://i1022.photobucket.com/albums/af345/bhoottt/WWEMondayNightRaw-900thEpisode-30thAug2010-XvidVAMPIREROCKs_20100831-14073489.jpg[/IMG]
[IMG]http://i1022.photobucket.com/albums/af345/bhoottt/WWEMondayNightRaw-900thEpisode-30thAug2010-XvidVAMPIREROCKs_20100831-14032887.jpg[/IMG]
[IMG]http://i1022.photobucket.com/albums/af345/bhoottt/WWEMondayNightRaw-900thEpisode-30thAug2010-XvidVAMPIREROCKs_20100831-14031146.jpg[/IMG]
[IMG]http://i1022.photobucket.com/albums/af345/bhoottt/WWEMondayNightRaw-900thEpisode-30thAug2010-XvidVAMPIREROCKs_20100831-14024604.jpg[/IMG]
[IMG]http://i1022.photobucket.com/albums/af345/bhoottt/WWEMondayNightRaw-900thEpisode-30thAug2010-XvidVAMPIREROCKs_20100831-14062078.jpg[/IMG]



Video
ID                               : 0
Format                           : MPEG-4 Visual
Format profile                   : Advanced Simple@L5
Format settings, BVOP            : Yes
Format settings, QPel            : No
Format settings, GMC             : No warppoints
Format settings, Matrix          : Default (H.263)
Codec ID                         : XVID
Codec ID/Hint                    : XviD
Duration                         : 1h 35mn
Bit rate                         : 599 Kbps
Width                            : 624 pixels
Height                           : 368 pixels
Display aspect ratio             : 1.696
Frame rate                       : 25.000 fps
Resolution                       : 8 bits
Colorimetry                      : 4:2:0
Scan type                        : Progressive
Bits/(Pixel*Frame)               : 0.104
Stream size                      : 411 MiB (90%)
Writing library                  : XviD 1.2.1 (UTC 2008-12-04)

Audio
ID                               : 1
Format                           : MPEG Audio
Format version                   : Version 2
Format profile                   : Layer 3
Mode                             : Joint stereo
Format_Settings_ModeExtension    : MS Stereo
Codec ID                         : 55
Codec ID/Hint                    : MP3
Duration                         : 1h 35mn
Bit rate mode                    : Constant
Bit rate                         : 56.0 Kbps
Channel(s)                       : 2 channels
Sampling rate                    : 24.0 KHz
Stream size                      : 38.4 MiB (8%)
Alignment                        : Aligned on interleaves
Interleave, duration             : 40 ms (1.00 video frame)
Interleave, preload duration     : 504 ms

